<svg xmlns="http://www.w3.org/2000/svg" width="880" height="92" viewBox="0 0 880 92" role="img" aria-labelledby="title">
  <title id="title">Portfolio Breakdown</title>
  <style>
    text { fill: #1f2328; }
    @media (prefers-color-scheme: dark) { text { fill: #f0f6fc; } }
    @media (max-width: 600px) { text { font-size: 48px; } }
  </style>
  <!-- Public app branding only. Icon geometry matches portfolio-breakdown.svg. -->
  <text x="440" y="88" text-anchor="middle" font-family="system-ui, -apple-system, Segoe UI, sans-serif" font-size="32" font-weight="600">Portfolio Breakdown</text>
  <svg x="792" y="0" width="88" height="88" viewBox="72 72 880 880">
    <rect id="tile" x="72" y="72" width="880" height="880" rx="192" fill="#11151C" />
    <path id="segment-1" fill="#5470C6" d="M 831.453066,493.298701 A 320.000000,320.000000 0 1 0 242.564693,684.640133 A 12.000000,12.000000 0 0 0 259.721940,687.874332 L 344.077532,626.586407 A 12.000000,12.000000 0 0 0 347.316808,610.708897 A 192.000000,192.000000 0 1 1 703.251135,495.058824 A 12.000000,12.000000 0 0 0 715.204331,506.000000 L 819.473576,506.000000 A 12.000000,12.000000 0 0 0 831.453066,493.298701 Z" />
    <path id="segment-2" fill="#4AA9B3" d="M 264.549388,714.899470 A 320.000000,320.000000 0 0 0 684.640133,781.435307 A 12.000000,12.000000 0 0 0 687.874332,764.278060 L 626.586407,679.922468 A 12.000000,12.000000 0 0 0 610.708897,676.683192 A 192.000000,192.000000 0 0 1 367.232355,638.120296 A 12.000000,12.000000 0 0 0 351.130955,636.294611 L 266.775363,697.582535 A 12.000000,12.000000 0 0 0 264.549388,714.899470 Z" />
    <path id="segment-3" fill="#9A6DD7" d="M 714.899470,759.450612 A 320.000000,320.000000 0 0 0 831.453066,530.701299 A 12.000000,12.000000 0 0 0 819.473576,518.000000 L 715.204331,518.000000 A 12.000000,12.000000 0 0 0 703.251135,528.941176 A 192.000000,192.000000 0 0 1 638.120296,656.767645 A 12.000000,12.000000 0 0 0 636.294611,672.869045 L 697.582535,757.224637 A 12.000000,12.000000 0 0 0 714.899470,759.450612 Z" />
  </svg>
</svg>
